# 3ds Max Wavefront OBJ Exporter v0.97b - (c)2007 guruware
# File Created: 04.02.2018 16:53:51

mtllib Frame_3_4.mtl

#
# object Box008
#

v  -2.0000 0.0000 -1.5000
v  -2.0000 0.0000 -1.6000
v  2.0000 0.0000 -1.6000
v  2.0000 0.0000 -1.5000
v  -2.0000 3.0000 -1.5000
v  2.0000 3.0000 -1.5000
v  2.0000 3.0000 -1.6000
v  -2.0000 3.0000 -1.6000
v  -2.0000 0.0000 1.5000
v  2.0000 0.0000 1.5000
v  -2.0000 0.1000 1.5000
v  2.0000 0.1000 1.5000
v  2.0000 0.1000 -1.5000
v  -2.0000 0.1000 -1.5000
v  -2.0000 2.9149 1.5000
v  -2.0000 2.9149 -1.5000
v  2.0000 2.9149 -1.5000
v  2.0000 2.9149 1.5000
v  -2.0000 3.0149 1.5000
v  2.0000 3.0149 1.5000
v  2.0000 3.0149 -1.5000
v  -2.0000 3.0149 -1.5000
v  -2.0500 0.0000 1.5000
v  -2.0500 0.0000 0.5000
v  -1.9500 0.0000 0.5000
v  -1.9500 0.0000 1.5000
v  -2.0500 0.0000 -0.5000
v  -1.9500 0.0000 -0.5000
v  -2.0500 0.0000 -1.5000
v  -1.9500 0.0000 -1.5000
v  -2.0500 3.0000 1.5000
v  -1.9500 3.0000 1.5000
v  -1.9500 3.0000 0.5000
v  -2.0500 3.0000 0.5000
v  -1.9500 3.0000 -0.5000
v  -2.0500 3.0000 -0.5000
v  -1.9500 3.0000 -1.5000
v  -2.0500 3.0000 -1.5000
v  -1.9500 1.0000 1.5000
v  -2.0500 1.0000 1.5000
v  -1.9500 2.0000 1.5000
v  -2.0500 2.0000 1.5000
v  -1.9500 0.1025 0.8336
v  -1.9500 0.1025 -0.8336
v  -1.9500 1.0000 -1.5000
v  -1.9500 2.8975 0.8336
v  -1.9500 2.0000 -1.5000
v  -1.9500 2.8975 -0.8336
v  -2.0500 1.0000 -1.5000
v  -2.0500 2.0000 -1.5000
v  -2.0500 0.1025 -0.8336
v  -2.0500 0.1025 0.8336
v  -2.0500 2.8975 -0.8336
v  -2.0500 2.8975 0.8336
v  1.9500 0.0000 1.5000
v  1.9500 0.0000 0.5000
v  2.0500 0.0000 0.5000
v  2.0500 0.0000 1.5000
v  1.9500 0.0000 -0.5000
v  2.0500 0.0000 -0.5000
v  1.9500 0.0000 -1.5000
v  2.0500 0.0000 -1.5000
v  1.9500 3.0000 1.5000
v  2.0500 3.0000 1.5000
v  2.0500 3.0000 0.5000
v  1.9500 3.0000 0.5000
v  2.0500 3.0000 -0.5000
v  1.9500 3.0000 -0.5000
v  2.0500 3.0000 -1.5000
v  1.9500 3.0000 -1.5000
v  2.0500 1.0000 1.5000
v  1.9500 1.0000 1.5000
v  2.0500 2.0000 1.5000
v  1.9500 2.0000 1.5000
v  2.0500 0.1025 0.8336
v  2.0500 0.1025 -0.8336
v  2.0500 1.0000 -1.5000
v  2.0500 2.8975 0.8336
v  2.0500 2.0000 -1.5000
v  2.0500 2.8975 -0.8336
v  1.9500 1.0000 -1.5000
v  1.9500 2.0000 -1.5000
v  1.9500 0.1025 -0.8336
v  1.9500 0.1025 0.8336
v  1.9500 2.8975 -0.8336
v  1.9500 2.8975 0.8336
# 86 vertices

vn 0.0000 -1.0000 -0.0000
vn 0.0000 1.0000 -0.0000
vn 0.0000 0.0000 1.0000
vn 1.0000 0.0000 -0.0000
vn 0.0000 0.0000 -1.0000
vn -1.0000 0.0000 -0.0000
vn 0.0000 -0.0000 1.0000
# 7 vertex normals

vt 1.0000 0.0000 0.0000
vt 1.0000 1.0000 0.0000
vt 0.0000 1.0000 0.0000
vt 0.0000 0.0000 0.0000
vt 1.0000 0.3333 0.0000
vt 0.0000 0.3333 0.0000
vt 1.0000 0.6667 0.0000
vt 0.0000 0.6667 0.0000
vt 0.3333 0.0000 0.0000
vt 0.3333 0.3333 0.0000
vt 0.6667 0.0000 0.0000
vt 0.6667 0.3333 0.0000
vt 0.3333 0.6667 0.0000
vt 0.6667 0.6667 0.0000
vt 0.3333 1.0000 0.0000
vt 0.6667 1.0000 0.0000
# 16 texture coords

g Box008
usemtl wire_177027088
s 2
f 1/1/1 2/2/1 3/3/1 4/4/1 
s 4
f 5/4/2 6/1/2 7/2/2 8/3/2 
s 8
f 1/4/3 4/1/3 6/2/3 5/3/3 
s 16
f 4/4/4 3/1/4 7/2/4 6/3/4 
s 32
f 3/4/5 2/1/5 8/2/5 7/3/5 
s 64
f 2/4/6 1/1/6 5/2/6 8/3/6 
s 2
f 9/1/1 1/2/1 4/3/1 10/4/1 
s 4
f 11/4/2 12/1/2 13/2/2 14/3/2 
s 8
f 9/4/3 10/1/3 12/2/3 11/3/3 
s 16
f 10/4/4 4/1/4 13/2/4 12/3/4 
s 32
f 4/4/5 1/1/5 14/2/5 13/3/5 
s 64
f 1/4/6 9/1/6 11/2/6 14/3/6 
s 2
f 15/1/1 16/2/1 17/3/1 18/4/1 
s 4
f 19/4/2 20/1/2 21/2/2 22/3/2 
s 8
f 15/4/3 18/1/3 20/2/3 19/3/3 
s 16
f 18/4/4 17/1/4 21/2/4 20/3/4 
s 32
f 17/4/5 16/1/5 22/2/5 21/3/5 
s 64
f 16/4/6 15/1/6 19/2/6 22/3/6 
s 2
f 23/1/1 24/5/1 25/6/1 26/4/1 
f 24/5/1 27/7/1 28/8/1 25/6/1 
f 27/7/1 29/2/1 30/3/1 28/8/1 
s 4
f 31/4/2 32/1/2 33/5/2 34/6/2 
f 34/6/2 33/5/2 35/7/2 36/8/2 
f 36/8/2 35/7/2 37/2/2 38/3/2 
s 8
f 23/4/3 26/1/3 39/5/3 40/6/3 
f 40/6/3 39/5/3 41/7/3 42/8/3 
f 42/8/3 41/7/3 32/2/3 31/3/3 
s 16
f 26/4/4 25/9/4 43/10/4 39/6/4 
f 25/9/4 28/11/4 44/12/4 43/10/4 
f 44/12/4 28/11/4 30/1/4 45/5/4 
f 39/6/4 43/10/4 46/13/4 41/8/4 
f 44/12/4 45/5/4 47/7/4 48/14/4 
f 32/3/4 41/8/4 46/13/4 33/15/4 
f 46/13/4 48/14/4 35/16/4 33/15/4 
f 48/14/4 47/7/4 37/2/4 35/16/4 
s 32
f 30/4/5 29/1/5 49/5/5 45/6/5 
f 45/6/5 49/5/5 50/7/5 47/8/5 
f 47/8/5 50/7/5 38/2/5 37/3/5 
s 64
f 29/4/6 27/9/6 51/10/6 49/6/6 
f 27/9/6 24/11/6 52/12/6 51/10/6 
f 52/12/6 24/11/6 23/1/6 40/5/6 
f 49/6/6 51/10/6 53/13/6 50/8/6 
f 52/12/6 40/5/6 42/7/6 54/14/6 
f 38/3/6 50/8/6 53/13/6 36/15/6 
f 53/13/6 54/14/6 34/16/6 36/15/6 
f 54/14/6 42/7/6 31/2/6 34/16/6 
s 1
f 54/5/5 46/11/5 43/6/5 52/2/5 
f 51/3/7 44/5/7 48/1/7 53/12/7 
s 2
f 52/2/2 43/6/2 44/5/2 51/3/2 
f 53/12/1 48/1/1 46/11/1 54/5/1 
f 55/1/1 56/5/1 57/6/1 58/4/1 
f 56/5/1 59/7/1 60/8/1 57/6/1 
f 59/7/1 61/2/1 62/3/1 60/8/1 
s 4
f 63/4/2 64/1/2 65/5/2 66/6/2 
f 66/6/2 65/5/2 67/7/2 68/8/2 
f 68/8/2 67/7/2 69/2/2 70/3/2 
s 8
f 55/4/3 58/1/3 71/5/3 72/6/3 
f 72/6/3 71/5/3 73/7/3 74/8/3 
f 74/8/3 73/7/3 64/2/3 63/3/3 
s 16
f 58/4/4 57/9/4 75/10/4 71/6/4 
f 57/9/4 60/11/4 76/12/4 75/10/4 
f 76/12/4 60/11/4 62/1/4 77/5/4 
f 71/6/4 75/10/4 78/13/4 73/8/4 
f 76/12/4 77/5/4 79/7/4 80/14/4 
f 64/3/4 73/8/4 78/13/4 65/15/4 
f 78/13/4 80/14/4 67/16/4 65/15/4 
f 80/14/4 79/7/4 69/2/4 67/16/4 
s 32
f 62/4/5 61/1/5 81/5/5 77/6/5 
f 77/6/5 81/5/5 82/7/5 79/8/5 
f 79/8/5 82/7/5 70/2/5 69/3/5 
s 64
f 61/4/6 59/9/6 83/10/6 81/6/6 
f 59/9/6 56/11/6 84/12/6 83/10/6 
f 84/12/6 56/11/6 55/1/6 72/5/6 
f 81/6/6 83/10/6 85/13/6 82/8/6 
f 84/12/6 72/5/6 74/7/6 86/14/6 
f 70/3/6 82/8/6 85/13/6 68/15/6 
f 85/13/6 86/14/6 66/16/6 68/15/6 
f 86/14/6 74/7/6 63/2/6 66/16/6 
s 1
f 86/5/5 78/11/5 75/6/5 84/2/5 
f 83/3/7 76/5/7 80/1/7 85/12/7 
s 2
f 84/2/2 75/6/2 76/5/2 83/3/2 
f 85/12/1 80/1/1 78/11/1 86/5/1 
# 82 polygons

