# 3ds Max Wavefront OBJ Exporter v0.97b - (c)2007 guruware
# File Created: 10.02.2018 13:02:33

mtllib Frame_3_8.mtl

#
# object Box010
#

v  -4.0000 0.0000 1.4500
v  4.0000 0.0000 1.4500
v  4.0000 0.0000 1.5500
v  -4.0000 0.0000 1.5500
v  4.0000 3.0000 1.5500
v  4.0000 3.0000 1.4500
v  -4.0000 3.0000 1.4500
v  -4.0000 3.0000 1.5500
v  -3.9000 0.0000 -1.5000
v  3.9000 0.0000 -1.5000
v  3.9000 0.0000 1.5000
v  -3.9000 0.0000 1.5000
v  3.9000 0.1000 1.5000
v  3.9000 0.1000 -1.5000
v  -3.9000 0.1000 -1.5000
v  -3.9000 0.1000 1.5000
v  -3.9000 2.9140 -1.5000
v  3.9000 2.9140 -1.5000
v  3.9000 2.9140 1.5000
v  -3.9000 2.9140 1.5000
v  3.9000 3.0140 1.5000
v  3.9000 3.0140 -1.5000
v  -3.9000 3.0140 -1.5000
v  -3.9000 3.0140 1.5000
v  4.0000 0.1095 -1.3903
v  4.0000 -0.0066 -0.5000
v  4.0000 -0.0066 -1.5000
v  4.0000 0.9934 -1.5000
v  4.0000 0.1095 0.0939
v  4.0000 -0.0066 0.5000
v  4.0000 0.9934 1.5000
v  4.0000 -0.0066 1.5000
v  4.0000 1.9934 -1.5000
v  4.0000 2.5995 -1.3903
v  4.0000 2.5995 0.0939
v  4.0000 1.9934 1.5000
v  4.0000 2.9934 -1.5000
v  4.0000 2.9934 -0.5000
v  4.0000 2.9934 0.5000
v  4.0000 2.9934 1.5000
v  3.9000 0.1095 -1.3903
v  3.9000 0.9934 -1.5000
v  3.9000 -0.0066 -1.5000
v  3.9000 -0.0066 -0.5000
v  3.9000 -0.0066 0.5000
v  3.9000 0.1095 0.0939
v  3.9000 -0.0066 1.5000
v  3.9000 0.9934 1.5000
v  3.9000 2.5995 -1.3903
v  3.9000 1.9934 -1.5000
v  3.9000 1.9934 1.5000
v  3.9000 2.5995 0.0939
v  3.9000 2.9934 -0.5000
v  3.9000 2.9934 -1.5000
v  3.9000 2.9934 0.5000
v  3.9000 2.9934 1.5000
v  -3.9000 0.1095 -1.3903
v  -3.9000 -0.0066 -0.5000
v  -3.9000 -0.0066 -1.5000
v  -3.9000 0.9934 -1.5000
v  -3.9000 0.1095 0.0939
v  -3.9000 -0.0066 0.5000
v  -3.9000 0.9934 1.5000
v  -3.9000 -0.0066 1.5000
v  -3.9000 1.9934 -1.5000
v  -3.9000 2.5995 -1.3903
v  -3.9000 2.5995 0.0939
v  -3.9000 1.9934 1.5000
v  -3.9000 2.9934 -1.5000
v  -3.9000 2.9934 -0.5000
v  -3.9000 2.9934 0.5000
v  -3.9000 2.9934 1.5000
v  -4.0000 0.1095 -1.3903
v  -4.0000 0.9934 -1.5000
v  -4.0000 -0.0066 -1.5000
v  -4.0000 -0.0066 -0.5000
v  -4.0000 -0.0066 0.5000
v  -4.0000 0.1095 0.0939
v  -4.0000 -0.0066 1.5000
v  -4.0000 0.9934 1.5000
v  -4.0000 2.5995 -1.3903
v  -4.0000 1.9934 -1.5000
v  -4.0000 1.9934 1.5000
v  -4.0000 2.5995 0.0939
v  -4.0000 2.9934 -0.5000
v  -4.0000 2.9934 -1.5000
v  -4.0000 2.9934 0.5000
v  -4.0000 2.9934 1.5000
# 88 vertices

vn 0.0000 -1.0000 -0.0000
vn 0.0000 1.0000 -0.0000
vn 0.0000 0.0000 1.0000
vn 1.0000 0.0000 -0.0000
vn 0.0000 0.0000 -1.0000
vn -1.0000 0.0000 -0.0000
# 6 vertex normals

vt 1.0000 1.0000 0.0000
vt 0.0000 1.0000 0.0000
vt 0.0000 0.0000 0.0000
vt 1.0000 0.0000 0.0000
vt 0.6667 0.3333 0.0000
vt 0.6667 0.0000 0.0000
vt 1.0000 0.3333 0.0000
vt 0.3333 0.3333 0.0000
vt 0.3333 0.0000 0.0000
vt -0.0000 0.3333 0.0000
vt -0.0000 0.0000 0.0000
vt 1.0000 0.6667 0.0000
vt 0.6667 0.6667 0.0000
vt 0.3333 0.6667 0.0000
vt -0.0000 0.6667 0.0000
vt 0.6667 1.0000 0.0000
vt 0.3333 1.0000 0.0000
vt -0.0000 1.0000 0.0000
vt 0.0000 0.3333 0.0000
vt 0.0000 0.6667 0.0000
# 20 texture coords

g Box010
usemtl wire_213154229
s 2
f 1/1/1 2/2/1 3/3/1 4/4/1 
s 4
f 5/4/2 6/1/2 7/2/2 8/3/2 
s 8
f 3/4/3 5/1/3 8/2/3 4/3/3 
s 16
f 2/4/4 6/1/4 5/2/4 3/3/4 
s 32
f 1/4/5 7/1/5 6/2/5 2/3/5 
s 64
f 4/4/6 8/1/6 7/2/6 1/3/6 
s 2
f 9/1/1 10/2/1 11/3/1 12/4/1 
s 4
f 13/4/2 14/1/2 15/2/2 16/3/2 
s 8
f 11/4/3 13/1/3 16/2/3 12/3/3 
s 16
f 10/4/4 14/1/4 13/2/4 11/3/4 
s 32
f 9/4/5 15/1/5 14/2/5 10/3/5 
s 64
f 12/4/6 16/1/6 15/2/6 9/3/6 
s 2
f 17/1/1 18/2/1 19/3/1 20/4/1 
s 4
f 21/4/2 22/1/2 23/2/2 24/3/2 
s 8
f 19/4/3 21/1/3 24/2/3 20/3/3 
s 16
f 18/4/4 22/1/4 21/2/4 19/3/4 
s 32
f 17/4/5 23/1/5 22/2/5 18/3/5 
s 64
f 20/4/6 24/1/6 23/2/6 17/3/6 
s 2
f 25/5/4 26/6/4 27/4/4 28/7/4 
f 25/5/4 29/8/4 30/9/4 26/6/4 
f 29/8/4 31/10/4 32/11/4 30/9/4 
f 28/7/4 33/12/4 34/13/4 25/5/4 
f 35/14/4 36/15/4 31/10/4 29/8/4 
f 37/1/4 38/16/4 34/13/4 33/12/4 
f 38/16/4 39/17/4 35/14/4 34/13/4 
f 35/14/4 39/17/4 40/18/4 36/15/4 
s 4
f 41/8/6 42/19/6 43/3/6 44/9/6 
f 45/6/6 46/5/6 41/8/6 44/9/6 
f 47/4/6 48/7/6 46/5/6 45/6/6 
f 42/19/6 41/8/6 49/14/6 50/20/6 
f 48/7/6 51/12/6 52/13/6 46/5/6 
f 49/14/6 53/17/6 54/2/6 50/20/6 
f 52/13/6 55/16/6 53/17/6 49/14/6 
f 52/13/6 51/12/6 56/1/6 55/16/6 
s 8
f 26/9/1 44/17/1 43/2/1 27/3/1 
f 30/6/1 45/16/1 44/17/1 26/9/1 
f 32/4/1 47/1/1 45/16/1 30/6/1 
s 16
f 31/9/3 48/17/3 47/2/3 32/3/3 
f 36/6/3 51/16/3 48/17/3 31/9/3 
f 40/4/3 56/1/3 51/16/3 36/6/3 
s 32
f 39/9/2 55/17/2 56/2/2 40/3/2 
f 38/6/2 53/16/2 55/17/2 39/9/2 
f 37/4/2 54/1/2 53/16/2 38/6/2 
s 64
f 33/9/5 50/17/5 54/2/5 37/3/5 
f 28/6/5 42/16/5 50/17/5 33/9/5 
f 27/4/5 43/1/5 42/16/5 28/6/5 
s 1
f 35/14/5 29/8/5 46/5/5 52/13/5 
s 8
f 29/8/2 25/5/2 41/8/2 46/5/2 
s 1
f 25/5/3 34/13/3 49/14/3 41/8/3 
s 8
f 34/13/1 35/14/1 52/13/1 49/14/1 
s 2
f 57/5/4 58/6/4 59/4/4 60/7/4 
f 57/5/4 61/8/4 62/9/4 58/6/4 
f 61/8/4 63/10/4 64/11/4 62/9/4 
f 60/7/4 65/12/4 66/13/4 57/5/4 
f 67/14/4 68/15/4 63/10/4 61/8/4 
f 69/1/4 70/16/4 66/13/4 65/12/4 
f 70/16/4 71/17/4 67/14/4 66/13/4 
f 67/14/4 71/17/4 72/18/4 68/15/4 
s 4
f 73/8/6 74/19/6 75/3/6 76/9/6 
f 77/6/6 78/5/6 73/8/6 76/9/6 
f 79/4/6 80/7/6 78/5/6 77/6/6 
f 74/19/6 73/8/6 81/14/6 82/20/6 
f 80/7/6 83/12/6 84/13/6 78/5/6 
f 81/14/6 85/17/6 86/2/6 82/20/6 
f 84/13/6 87/16/6 85/17/6 81/14/6 
f 84/13/6 83/12/6 88/1/6 87/16/6 
s 8
f 58/9/1 76/17/1 75/2/1 59/3/1 
f 62/6/1 77/16/1 76/17/1 58/9/1 
f 64/4/1 79/1/1 77/16/1 62/6/1 
s 16
f 63/9/3 80/17/3 79/2/3 64/3/3 
f 68/6/3 83/16/3 80/17/3 63/9/3 
f 72/4/3 88/1/3 83/16/3 68/6/3 
s 32
f 71/9/2 87/17/2 88/2/2 72/3/2 
f 70/6/2 85/16/2 87/17/2 71/9/2 
f 69/4/2 86/1/2 85/16/2 70/6/2 
s 64
f 65/9/5 82/17/5 86/2/5 69/3/5 
f 60/6/5 74/16/5 82/17/5 65/9/5 
f 59/4/5 75/1/5 74/16/5 60/6/5 
s 1
f 67/14/5 61/8/5 78/5/5 84/13/5 
s 8
f 61/8/2 57/5/2 73/8/2 78/5/2 
s 1
f 57/5/3 66/13/3 81/14/3 73/8/3 
s 8
f 66/13/1 67/14/1 84/13/1 81/14/1 
# 82 polygons

