# 3ds Max Wavefront OBJ Exporter v0.97b - (c)2007 guruware
# File Created: 10.02.2018 13:01:49

mtllib Frame_3_6.mtl

#
# object Box012
#

v  3.0000 0.0000 1.6000
v  -3.0000 0.0000 1.6000
v  -3.0000 0.0000 1.5000
v  3.0000 0.0000 1.5000
v  -3.0000 3.0000 1.5000
v  -3.0000 3.0000 1.6000
v  3.0000 3.0000 1.6000
v  3.0000 3.0000 1.5000
v  2.9000 2.9500 1.5000
v  -2.9000 2.9500 1.5000
v  -2.9000 2.9500 -1.5000
v  2.9000 2.9500 -1.5000
v  -2.9000 3.0109 -1.5000
v  -2.9000 3.0109 1.5000
v  2.9000 3.0109 1.5000
v  2.9000 3.0109 -1.5000
v  2.9000 0.0000 1.5000
v  -2.9000 0.0000 1.5000
v  -2.9000 0.0000 -1.5000
v  2.9000 0.0000 -1.5000
v  -2.9000 0.0609 -1.5000
v  -2.9000 0.0609 1.5000
v  2.9000 0.0609 1.5000
v  2.9000 0.0609 -1.5000
v  -2.9000 -0.0066 -1.5000
v  -2.9000 0.9934 -1.5000
v  -2.9000 0.1095 -1.3768
v  -2.9000 -0.0066 -0.5000
v  -2.9000 -0.0066 0.5000
v  -2.9000 0.1095 0.0091
v  -2.9000 -0.0066 1.5000
v  -2.9000 0.9934 1.5000
v  -2.9000 2.5995 -1.3768
v  -2.9000 1.9934 -1.5000
v  -2.9000 2.5995 0.0091
v  -2.9000 1.9934 1.5000
v  -2.9000 2.9934 -1.5000
v  -2.9000 2.9934 -0.5000
v  -2.9000 2.9934 0.5000
v  -2.9000 2.9934 1.5000
v  -3.0000 -0.0066 -1.5000
v  -3.0000 -0.0066 -0.5000
v  -3.0000 0.1095 -1.3768
v  -3.0000 0.9934 -1.5000
v  -3.0000 -0.0066 0.5000
v  -3.0000 0.1095 0.0091
v  -3.0000 -0.0066 1.5000
v  -3.0000 0.9934 1.5000
v  -3.0000 2.5995 -1.3768
v  -3.0000 1.9934 -1.5000
v  -3.0000 2.5995 0.0091
v  -3.0000 1.9934 1.5000
v  -3.0000 2.9934 -1.5000
v  -3.0000 2.9934 -0.5000
v  -3.0000 2.9934 0.5000
v  -3.0000 2.9934 1.5000
v  3.0000 -0.0066 -1.5000
v  3.0000 0.9934 -1.5000
v  3.0000 0.1095 -1.3768
v  3.0000 -0.0066 -0.5000
v  3.0000 -0.0066 0.5000
v  3.0000 0.1095 0.0091
v  3.0000 -0.0066 1.5000
v  3.0000 0.9934 1.5000
v  3.0000 2.5995 -1.3768
v  3.0000 1.9934 -1.5000
v  3.0000 2.5995 0.0091
v  3.0000 1.9934 1.5000
v  3.0000 2.9934 -1.5000
v  3.0000 2.9934 -0.5000
v  3.0000 2.9934 0.5000
v  3.0000 2.9934 1.5000
v  2.9000 -0.0066 -1.5000
v  2.9000 -0.0066 -0.5000
v  2.9000 0.1095 -1.3768
v  2.9000 0.9934 -1.5000
v  2.9000 -0.0066 0.5000
v  2.9000 0.1095 0.0091
v  2.9000 -0.0066 1.5000
v  2.9000 0.9934 1.5000
v  2.9000 2.5995 -1.3768
v  2.9000 1.9934 -1.5000
v  2.9000 2.5995 0.0091
v  2.9000 1.9934 1.5000
v  2.9000 2.9934 -1.5000
v  2.9000 2.9934 -0.5000
v  2.9000 2.9934 0.5000
v  2.9000 2.9934 1.5000
# 88 vertices

vn 0.0000 -1.0000 -0.0000
vn 0.0000 1.0000 -0.0000
vn 0.0000 0.0000 1.0000
vn 1.0000 0.0000 -0.0000
vn 0.0000 0.0000 -1.0000
vn -1.0000 0.0000 -0.0000
# 6 vertex normals

vt 0.0000 0.0000 0.0000
vt 1.0000 0.0000 0.0000
vt 1.0000 1.0000 0.0000
vt 0.0000 1.0000 0.0000
vt 1.0000 0.3333 0.0000
vt 0.6667 0.3333 0.0000
vt 0.6667 0.0000 0.0000
vt 0.3333 0.0000 0.0000
vt 0.3333 0.3333 0.0000
vt -0.0000 0.0000 0.0000
vt -0.0000 0.3333 0.0000
vt 0.6667 0.6667 0.0000
vt 1.0000 0.6667 0.0000
vt 0.3333 0.6667 0.0000
vt -0.0000 0.6667 0.0000
vt 0.6667 1.0000 0.0000
vt 0.3333 1.0000 0.0000
vt -0.0000 1.0000 0.0000
vt 0.0000 0.3333 0.0000
vt 0.0000 0.6667 0.0000
# 20 texture coords

g Box012
usemtl wire_135110008
s 2
f 1/1/1 2/2/1 3/3/1 4/4/1 
s 4
f 5/4/2 6/1/2 7/2/2 8/3/2 
s 8
f 6/4/3 2/1/3 1/2/3 7/3/3 
s 16
f 7/4/4 1/1/4 4/2/4 8/3/4 
s 32
f 8/4/5 4/1/5 3/2/5 5/3/5 
s 64
f 5/4/6 3/1/6 2/2/6 6/3/6 
s 2
f 9/1/1 10/2/1 11/3/1 12/4/1 
s 4
f 13/4/2 14/1/2 15/2/2 16/3/2 
s 8
f 14/4/3 10/1/3 9/2/3 15/3/3 
s 16
f 15/4/4 9/1/4 12/2/4 16/3/4 
s 32
f 16/4/5 12/1/5 11/2/5 13/3/5 
s 64
f 13/4/6 11/1/6 10/2/6 14/3/6 
s 2
f 17/1/1 18/2/1 19/3/1 20/4/1 
s 4
f 21/4/2 22/1/2 23/2/2 24/3/2 
s 8
f 22/4/3 18/1/3 17/2/3 23/3/3 
s 16
f 23/4/4 17/1/4 20/2/4 24/3/4 
s 32
f 24/4/5 20/1/5 19/2/5 21/3/5 
s 64
f 21/4/6 19/1/6 18/2/6 22/3/6 
s 2
f 25/2/4 26/5/4 27/6/4 28/7/4 
f 29/8/4 28/7/4 27/6/4 30/9/4 
f 31/10/4 29/8/4 30/9/4 32/11/4 
f 33/12/4 27/6/4 26/5/4 34/13/4 
f 32/11/4 30/9/4 35/14/4 36/15/4 
f 33/12/4 34/13/4 37/3/4 38/16/4 
f 35/14/4 33/12/4 38/16/4 39/17/4 
f 40/18/4 36/15/4 35/14/4 39/17/4 
s 4
f 41/1/6 42/8/6 43/9/6 44/19/6 
f 43/9/6 42/8/6 45/7/6 46/6/6 
f 46/6/6 45/7/6 47/2/6 48/5/6 
f 49/14/6 50/20/6 44/19/6 43/9/6 
f 51/12/6 46/6/6 48/5/6 52/13/6 
f 53/4/6 50/20/6 49/14/6 54/17/6 
f 54/17/6 49/14/6 51/12/6 55/16/6 
f 56/3/6 55/16/6 51/12/6 52/13/6 
s 8
f 41/4/1 25/1/1 28/8/1 42/17/1 
f 42/17/1 28/8/1 29/7/1 45/16/1 
f 45/16/1 29/7/1 31/2/1 47/3/1 
s 16
f 47/4/3 31/1/3 32/8/3 48/17/3 
f 48/17/3 32/8/3 36/7/3 52/16/3 
f 52/16/3 36/7/3 40/2/3 56/3/3 
s 32
f 56/4/2 40/1/2 39/8/2 55/17/2 
f 55/17/2 39/8/2 38/7/2 54/16/2 
f 54/16/2 38/7/2 37/2/2 53/3/2 
s 64
f 53/4/5 37/1/5 34/8/5 50/17/5 
f 50/17/5 34/8/5 26/7/5 44/16/5 
f 44/16/5 26/7/5 25/2/5 41/3/5 
s 1
f 46/6/5 51/12/5 35/14/5 30/9/5 
s 8
f 43/9/2 46/6/2 30/9/2 27/6/2 
s 1
f 49/14/3 43/9/3 27/6/3 33/12/3 
s 8
f 51/12/1 49/14/1 33/12/1 35/14/1 
s 2
f 57/2/4 58/5/4 59/6/4 60/7/4 
f 61/8/4 60/7/4 59/6/4 62/9/4 
f 63/10/4 61/8/4 62/9/4 64/11/4 
f 65/12/4 59/6/4 58/5/4 66/13/4 
f 64/11/4 62/9/4 67/14/4 68/15/4 
f 65/12/4 66/13/4 69/3/4 70/16/4 
f 67/14/4 65/12/4 70/16/4 71/17/4 
f 72/18/4 68/15/4 67/14/4 71/17/4 
s 4
f 73/1/6 74/8/6 75/9/6 76/19/6 
f 75/9/6 74/8/6 77/7/6 78/6/6 
f 78/6/6 77/7/6 79/2/6 80/5/6 
f 81/14/6 82/20/6 76/19/6 75/9/6 
f 83/12/6 78/6/6 80/5/6 84/13/6 
f 85/4/6 82/20/6 81/14/6 86/17/6 
f 86/17/6 81/14/6 83/12/6 87/16/6 
f 88/3/6 87/16/6 83/12/6 84/13/6 
s 8
f 73/4/1 57/1/1 60/8/1 74/17/1 
f 74/17/1 60/8/1 61/7/1 77/16/1 
f 77/16/1 61/7/1 63/2/1 79/3/1 
s 16
f 79/4/3 63/1/3 64/8/3 80/17/3 
f 80/17/3 64/8/3 68/7/3 84/16/3 
f 84/16/3 68/7/3 72/2/3 88/3/3 
s 32
f 88/4/2 72/1/2 71/8/2 87/17/2 
f 87/17/2 71/8/2 70/7/2 86/16/2 
f 86/16/2 70/7/2 69/2/2 85/3/2 
s 64
f 85/4/5 69/1/5 66/8/5 82/17/5 
f 82/17/5 66/8/5 58/7/5 76/16/5 
f 76/16/5 58/7/5 57/2/5 73/3/5 
s 1
f 78/6/5 83/12/5 67/14/5 62/9/5 
s 8
f 75/9/2 78/6/2 62/9/2 59/6/2 
s 1
f 81/14/3 75/9/3 59/6/3 65/12/3 
s 8
f 83/12/1 81/14/1 65/12/1 67/14/1 
# 82 polygons

